<?xml version="1.0" encoding="utf-8"?>
<!-- Generator: Adobe Illustrator 27.8.1, SVG Export Plug-In . SVG Version: 6.00 Build 0)  -->
<svg version="1.1" xmlns="http://www.w3.org/2000/svg" xmlns:xlink="http://www.w3.org/1999/xlink" x="0px" y="0px"
	 viewBox="0 0 368.5 226.77" style="enable-background:new 0 0 368.5 226.77;" xml:space="preserve">
<style type="text/css">
	.st0{display:none;}
	.st1{display:inline;}
	.st2{fill:#010202;}
	.st3{fill:#004D7B;}
	.st4{fill:#F2F2F2;}
	.st5{fill:#E60065;}
</style>
<g id="Logo" class="st0">
	<g class="st1">
		<path class="st2" d="M143.64,119.54v5.03c-0.01,0-0.02,0.01-0.02,0.01c-0.01,0.01-0.03,0.02-0.05,0.03
			c-2.98,1.95-6.16,3.64-9.51,5.04v-27.13L143.64,119.54z"/>
		<path class="st2" d="M86.21,101.59v28.29c-3.34-1.38-6.55-3.04-9.56-4.96v-6.32L86.21,101.59z"/>
		<path class="st2" d="M143.64,26.47V102l-4.06-6.77l-5.51-9.2V21.38c2.85,1.2,5.59,2.6,8.19,4.2c0.11,0.07,0.23,0.14,0.35,0.23
			c0.25,0.16,0.5,0.32,0.75,0.48c0.03,0.02,0.05,0.03,0.08,0.06c0.02,0.01,0.03,0.02,0.06,0.03
			C143.54,26.41,143.59,26.44,143.64,26.47z"/>
		<path class="st2" d="M86.21,21.16v63.97l-0.3,0.5l-0.09,0.15l-5.65,9.45l-3.53,5.89v-75c0.02-0.02,0.05-0.05,0.08-0.06
			c0.03-0.01,0.07-0.03,0.09-0.06c0.08-0.05,0.16-0.1,0.24-0.16C79.95,24.05,83.02,22.48,86.21,21.16z"/>
		<path class="st3" d="M122.94,35.48c0,5.43-3.31,10.09-8.03,12.07c-1.55,0.64-3.25,1-5.04,1c-1.58,0-3.09-0.28-4.51-0.79
			c-5-1.84-8.56-6.65-8.56-12.28c0-5.64,3.56-10.44,8.56-12.28c1.41-0.51,2.92-0.79,4.51-0.79c1.79,0,3.49,0.36,5.04,1
			C119.64,25.39,122.94,30.05,122.94,35.48z"/>
		<polygon class="st3" points="168.97,75.06 168.55,75.06 143.64,75.12 143.64,67.3 168.72,67.3 		"/>
		<polygon class="st3" points="76.65,67.3 76.65,75.12 51.21,75.06 50.78,75.06 51.03,67.3 		"/>
		<path class="st3" d="M152.94,117.53l-7,6.09l-0.25-0.45l-0.05-0.08l-0.01-0.01l-0.22-0.4l-1.78-3.15l-9.57-17l-4.11-7.3l-5.41-9.6
			l-5.35-9.53l-0.56-0.98h-3.71v59.24c-1.67,0.14-3.34,0.21-5.06,0.21c-1.53,0-3.05-0.05-4.54-0.17V75.13h-4.21l-0.56,0.98
			l-5.35,9.53l-5.41,9.6l-3.58,6.36l-9.56,17l-2.32,4.1l-0.21,0.39l-0.01,0.02l-0.06,0.08l-0.25,0.45l-7-6.09l0.15-0.24l0.19-0.33
			l0.13-0.19l0.13-0.21l9.24-15.44l3.53-5.89l5.65-9.45l0.09-0.15l0.3-0.5l0.05-0.07l5.37-8.96l0.56-0.95l-5.98-0.01V67.3h47.85
			v7.84l-6.5,0.02l0.56,0.95l5.72,9.53l0.23,0.4l5.51,9.2l4.06,6.77l8.71,14.56l0.25,0.41l0.19,0.32L152.94,117.53z"/>
	</g>
</g>
<g id="Logo_copia">
	<g>
		<path class="st4" d="M244.98,174.59v8.09c-0.02,0-0.04,0.02-0.04,0.02c-0.02,0.02-0.05,0.04-0.07,0.06
			c-4.79,3.14-9.91,5.85-15.29,8.11v-43.62L244.98,174.59z"/>
		<path class="st4" d="M152.64,145.72v45.49c-5.38-2.22-10.53-4.88-15.38-7.98v-10.17L152.64,145.72z"/>
		<path class="st4" d="M244.98,24.93v121.46l-6.53-10.88l-8.86-14.79V16.75c4.59,1.93,8.99,4.18,13.18,6.75
			c0.18,0.11,0.37,0.22,0.57,0.37c0.4,0.26,0.81,0.51,1.21,0.77c0.05,0.04,0.07,0.05,0.13,0.09c0.04,0.02,0.05,0.04,0.09,0.05
			C244.83,24.84,244.9,24.87,244.98,24.93z"/>
		<path class="st4" d="M152.64,16.4v102.87l-0.48,0.81l-0.15,0.24l-9.08,15.19l-5.67,9.47V24.38c0.04-0.04,0.07-0.07,0.13-0.09
			c0.06-0.02,0.11-0.06,0.15-0.09c0.13-0.07,0.26-0.17,0.39-0.26C142.57,21.04,147.5,18.51,152.64,16.4z"/>
		<path class="st5" d="M211.7,39.42c0,8.74-5.32,16.23-12.91,19.41c-2.5,1.03-5.23,1.61-8.1,1.61c-2.55,0-4.98-0.44-7.25-1.27
			c-8.04-2.96-13.76-10.69-13.76-19.75c0-9.06,5.73-16.79,13.76-19.75c2.27-0.82,4.7-1.27,7.25-1.27c2.87,0,5.61,0.58,8.1,1.61
			C206.38,23.19,211.7,30.68,211.7,39.42z"/>
		<polygon class="st5" points="285.72,103.06 285.04,103.06 244.97,103.16 244.97,90.58 285.31,90.58 		"/>
		<polygon class="st5" points="137.26,90.58 137.26,103.16 96.36,103.06 95.66,103.06 96.07,90.58 		"/>
		<path class="st5" d="M259.93,171.36l-11.25,9.8l-0.4-0.72l-0.07-0.13l-0.02-0.02l-0.35-0.64l-2.86-5.06l-15.4-27.34l-6.61-11.74
			l-8.7-15.43l-8.61-15.32l-0.9-1.58h-5.96v95.25c-2.68,0.22-5.38,0.33-8.13,0.33c-2.46,0-4.9-0.07-7.3-0.28v-95.31h-6.77l-0.9,1.58
			l-8.61,15.32l-8.7,15.43l-5.76,10.22l-15.38,27.34l-3.72,6.59l-0.33,0.62l-0.02,0.04l-0.09,0.13l-0.4,0.72l-11.25-9.8l0.24-0.39
			l0.31-0.53l0.2-0.31l0.2-0.33l14.86-24.83l5.67-9.47l9.08-15.19l0.15-0.24l0.48-0.81l0.07-0.11l8.64-14.4l0.9-1.52l-9.62-0.02
			V90.58h76.94v12.61l-10.46,0.04l0.9,1.52l9.19,15.32l0.37,0.64l8.86,14.79l6.53,10.88l14,23.41l0.4,0.66l0.31,0.51L259.93,171.36z
			"/>
	</g>
</g>
</svg>
